<svg id="Capa_1" data-name="Capa 1" xmlns="http://www.w3.org/2000/svg" xmlns:xlink="http://www.w3.org/1999/xlink" viewBox="0 0 1253.9 1269.8"><defs><style>.cls-1{fill:#ebeff6;}.cls-2{fill:#253845;}.cls-3{fill:url(#Degradado_sin_nombre_5);}</style><linearGradient id="Degradado_sin_nombre_5" x1="1034.02" y1="357" x2="445.49" y2="945.53" gradientUnits="userSpaceOnUse"><stop offset="0" stop-color="#5fb56e"/><stop offset="0.01" stop-color="#5db56e"/><stop offset="0.1" stop-color="#52b26d"/><stop offset="0.19" stop-color="#4eb16d"/><stop offset="0.46" stop-color="#09a35c"/><stop offset="0.78" stop-color="#2c8f69"/><stop offset="0.94" stop-color="#188652"/><stop offset="1" stop-color="#108349"/></linearGradient></defs><rect class="cls-1" x="45.03" y="59.54" width="1163.87" height="1163.87" rx="173.9"/><path class="cls-2" d="M1266.59,638.47c0,136.39.59,272.79-.21,409.18-.49,84.1-43.19,147.23-109.35,192.95-35.6,24.61-79,34.3-124.21,34.12-237.76-.91-475.54-.44-713.31-.83-42.71-.07-85.79,4.57-128-5.48C89.07,1244,13.65,1150.54,13.43,1045.2c-.56-270.37.26-540.74-.38-811.11C12.8,128.62,102.18,4.46,253.13,5.1c242,1,484,.17,726,.19,40.92,0,81.82-1.54,122.06,9.65,91.42,25.44,165.11,119.43,165.48,214.36.53,136.39.14,272.78.14,409.17Zm-94.17,5.21c0-131.52.63-263-.22-394.56-.59-92.73-60.56-150.38-153.17-150.18q-161.07.36-322.16.18c-146,0-292,.56-438-.21C177,98.48,107,155.13,107.43,249q1.81,393.66,0,787.32c-.31,75.77,64.09,146.24,145.31,145.62,257.6-2,515.22-.49,772.83-.88,87.51-.13,146.42-59.15,146.74-146.45C1172.73,904.31,1172.39,774,1172.42,643.68Z" transform="translate(-13.05 -5.1)"/><path class="cls-2" d="M1092.63,453.08c-.65,50.62,2.43,117.56-7,184.2-28.47,202.17-158.6,378.16-379.43,423.07-45.24,9.21-91,10.16-136.8,9.61-70-.82-139.85-.89-209.34,9.35-19.69,2.9-30.46-5.29-35.58-27.34-9.68-41.69-15.16-84.1-19.5-126.64-9.32-91.29-8.87-182.13,21.32-270C378.45,503.59,481,399.85,629.93,341.39c83.39-32.74,170.81-53.21,255-83.52,42.46-15.28,84.21-32.16,125-51.33,9.25-4.34,18.38-9,27.82-12.91,27.56-11.44,44.36-1.58,47.71,28.22,4.37,39,6.53,78.08,7,117.26C1093,371.68,1092.63,404.25,1092.63,453.08Zm-416,187.44c45.67-50.07,92.16-92.88,136.35-138,17.91-18.28,44.88-23.27,63.18-10.29,25.39,18,25.77,47.06.57,72.78-40.48,41.33-81.2,82.42-121.73,123.7-18.91,19.26-18.86,19.45,5.84,29.37C778,725,787,738.41,786.35,755.88c-.6,16.68-12.09,27.66-28,31.42-11.81,2.79-24.26,2.86-36.53,3.6-33.32,2-67.86-11.3-97.32,23.44-42.27,49.85-91.74,93.6-138.12,140-5.36,5.37-10.55,10.91-11.78,20.29,49.67-4,98.15,3.81,147.16,1.12,69.47-3.8,134-21.14,192.3-58.75,109.18-70.4,167.43-172.93,180.52-300.36,9.76-94.9,3.25-190.48,3.94-285.76.12-16.25-6.27-16-18.64-11.08-31.88,12.6-63.88,25-96.33,36.06-71.19,24.24-144.84,40.8-215,68.35C558.19,467.52,476.16,541,428.8,650.9a378.18,378.18,0,0,0-30.08,125.92c-2.62,41.16-4.31,82.69,3.77,123.39,6.61,1.09,8.91-3.06,11.73-5.85q85.86-84.87,171.59-169.86c4.82-4.77,7-10,8.12-17.18,4.78-29.35,1.47-58.85,3.39-88.19,1.08-16.56,3.43-33.17,23.36-38,21.57-5.27,38.74,3.68,49.39,23.81C675.32,614.81,675.08,625.57,676.65,640.52Z" transform="translate(-13.05 -5.1)"/><path class="cls-2" d="M296.43,225.35c37.22.05,65.76,30.2,65.41,69.11-.3,34.76-32.9,64.91-69.51,64.3-36-.61-65.53-30.55-65.23-66.22C227.43,252.9,255.91,225.29,296.43,225.35Z" transform="translate(-13.05 -5.1)"/><path class="cls-3" d="M676.65,640.52c-1.57-14.95-1.33-25.71-6.58-35.63-10.65-20.13-27.82-29.08-49.39-23.81-19.93,4.88-22.28,21.49-23.36,38-1.92,29.34,1.39,58.84-3.39,88.19-1.17,7.14-3.3,12.41-8.12,17.18Q500,809.45,414.22,894.36c-2.82,2.79-5.12,6.94-11.73,5.85-8.08-40.7-6.39-82.23-3.77-123.39A378.18,378.18,0,0,1,428.8,650.9C476.16,541,558.19,467.52,668.54,424.19c70.14-27.55,143.79-44.11,215-68.35,32.45-11,64.45-23.46,96.33-36.06,12.37-4.9,18.76-5.17,18.64,11.08-.69,95.28,5.82,190.86-3.94,285.76C981.46,744.05,923.21,846.58,814,917c-58.34,37.61-122.83,54.95-192.3,58.75-49,2.69-97.49-5.07-147.16-1.12,1.23-9.38,6.42-14.92,11.78-20.29,46.38-46.38,95.85-90.13,138.12-140,29.46-34.74,64-21.44,97.32-23.44,12.27-.74,24.72-.81,36.53-3.6,15.94-3.76,27.43-14.74,28-31.42C787,738.41,778,725,760.86,718.1c-24.7-9.92-24.75-10.11-5.84-29.37,40.53-41.28,81.25-82.37,121.73-123.7,25.2-25.72,24.82-54.78-.57-72.78-18.3-13-45.27-8-63.18,10.29C768.81,547.64,722.32,590.45,676.65,640.52Z" transform="translate(-13.05 -5.1)"/></svg>