<svg id="Capa_1" data-name="Capa 1" xmlns="http://www.w3.org/2000/svg" xmlns:xlink="http://www.w3.org/1999/xlink" viewBox="0 0 1468.6 317.14"><defs><style>.cls-1{font-size:213.13px;font-family:VictorMono-Bold, Victor Mono;}.cls-1,.cls-4{fill:#253845;}.cls-1,.cls-3{font-weight:700;}.cls-2{fill:#ebeff6;}.cls-3{font-size:96.71px;fill:#2e9737;font-family:HelveticaRounded-Bold, Helvetica Rounded;}.cls-5{fill:url(#Degradado_sin_nombre_28);}.cls-6{font-size:74.45px;fill:#9c9b9b;font-family:VictorMono-SemiBold, Victor Mono;font-weight:600;}</style><linearGradient id="Degradado_sin_nombre_28" x1="261" y1="57.02" x2="114.02" y2="204.01" gradientUnits="userSpaceOnUse"><stop offset="0" stop-color="#5fb56e"/><stop offset="0.01" stop-color="#5db56e"/><stop offset="0.1" stop-color="#52b26d"/><stop offset="0.19" stop-color="#4eb16d"/><stop offset="0.46" stop-color="#09a35c"/><stop offset="0.78" stop-color="#2c8f69"/><stop offset="0.94" stop-color="#188652"/><stop offset="1" stop-color="#108349"/></linearGradient></defs><text class="cls-1" transform="translate(328.03 203.06)">ecoCode</text><rect class="cls-2" x="18.82" y="14.87" width="290.68" height="290.68" rx="48.85"/><text class="cls-3" transform="translate(1163.5 175)">Studio</text><path class="cls-4" d="M319.09,127.32c0,34.06.15,68.13,0,102.19-.12,21-10.79,36.77-27.31,48.19-8.89,6.15-19.73,8.57-31,8.53-59.39-.23-118.77-.11-178.16-.21-10.67,0-21.43,1.14-32-1.37C25,278.56,6.16,255.21,6.11,228.9,6,161.37,6.17,93.85,6,26.32,6,0,28.27-31,66-30.87c60.44.26,120.89,0,181.33.05,10.22,0,20.43-.39,30.48,2.41C300.61-22.06,319,1.41,319.11,25.12c.13,34.07,0,68.13,0,102.2Zm-23.52,1.3c0-32.85.16-65.7-.05-98.55-.15-23.15-15.13-37.55-38.26-37.5q-40.23.09-80.46,0c-36.46,0-72.93.14-109.39-.05C47-7.55,29.47,6.6,29.58,30.05q.45,98.31,0,196.63c-.08,18.93,16,36.53,36.29,36.37,64.34-.49,128.68-.12,193-.21,21.85,0,36.56-14.78,36.64-36.58C295.65,193.71,295.56,161.16,295.57,128.62Z" transform="translate(-6.01 30.87)"/><path class="cls-4" d="M275.64,81c-.16,12.65.61,29.37-1.73,46-7.11,50.49-39.61,94.45-94.77,105.67-11.3,2.29-22.71,2.53-34.16,2.4-17.48-.21-34.93-.23-52.29,2.33-4.92.73-7.61-1.32-8.89-6.83A255.38,255.38,0,0,1,78.93,199c-2.32-22.8-2.21-45.48,5.33-67.44,13-37.89,38.63-63.8,75.82-78.4,20.83-8.18,42.66-13.29,63.69-20.86,10.61-3.82,21-8,31.23-12.82,2.31-1.08,4.59-2.25,6.95-3.22,6.88-2.86,11.08-.4,11.92,7,1.09,9.73,1.63,19.5,1.75,29.29C275.73,60.68,275.64,68.82,275.64,81ZM171.75,127.83c11.41-12.51,23-23.2,34.05-34.46,4.48-4.57,11.21-5.81,15.78-2.57,6.35,4.49,6.44,11.75.15,18.18-10.11,10.32-20.29,20.58-30.41,30.89-4.72,4.81-4.71,4.86,1.46,7.34,4.28,1.72,6.52,5.07,6.37,9.43-.15,4.17-3,6.91-7,7.85a54.12,54.12,0,0,1-9.13.9c-8.32.5-16.94-2.82-24.3,5.85-10.56,12.45-22.92,23.38-34.5,35a8.47,8.47,0,0,0-2.94,5.07c12.4-1,24.51.95,36.75.28,17.35-1,33.46-5.28,48-14.67,27.27-17.58,41.82-43.19,45.09-75,2.43-23.7.81-47.57,1-71.37,0-4.06-1.57-4-4.66-2.77-8,3.15-15.95,6.25-24.05,9-17.78,6.05-36.18,10.19-53.7,17.07-27.56,10.82-48,29.17-59.87,56.62a94.17,94.17,0,0,0-7.51,31.45c-.66,10.28-1.08,20.66.94,30.82,1.65.27,2.22-.76,2.93-1.46Q127.65,170,149.06,148.8a7.1,7.1,0,0,0,2-4.29c1.19-7.33.37-14.69.85-22,.27-4.14.85-8.29,5.83-9.51,5.39-1.31,9.68.92,12.34,6C171.42,121.41,171.36,124.1,171.75,127.83Z" transform="translate(-6.01 30.87)"/><path class="cls-4" d="M76.79,24.14c9.29,0,16.42,7.54,16.33,17.26-.07,8.68-8.21,16.21-17.36,16.06A16.62,16.62,0,0,1,59.47,40.92C59.55,31,66.67,24.12,76.79,24.14Z" transform="translate(-6.01 30.87)"/><path class="cls-5" d="M171.75,127.83c-.39-3.73-.33-6.42-1.64-8.9-2.66-5-7-7.26-12.34-6-5,1.22-5.56,5.37-5.83,9.51-.48,7.33.34,14.69-.85,22a7.1,7.1,0,0,1-2,4.29Q127.64,170,106.21,191.23c-.71.7-1.28,1.73-2.93,1.46-2-10.16-1.6-20.54-.94-30.82a94.17,94.17,0,0,1,7.51-31.45c11.82-27.45,32.31-45.8,59.87-56.62,17.52-6.88,35.92-11,53.7-17.07,8.1-2.76,16.09-5.86,24.05-9,3.09-1.22,4.69-1.29,4.66,2.77-.17,23.8,1.45,47.67-1,71.37-3.27,31.83-17.82,57.44-45.09,75-14.57,9.39-30.68,13.72-48,14.67-12.24.67-24.35-1.27-36.75-.28a8.47,8.47,0,0,1,2.94-5.07c11.58-11.58,23.94-22.51,34.5-35,7.36-8.67,16-5.35,24.3-5.85a54.12,54.12,0,0,0,9.13-.9c4-.94,6.85-3.68,7-7.85.15-4.36-2.09-7.71-6.37-9.43-6.17-2.48-6.18-2.53-1.46-7.34,10.12-10.31,20.3-20.57,30.41-30.89,6.29-6.43,6.2-13.69-.15-18.18-4.57-3.24-11.3-2-15.78,2.57C194.77,104.63,183.16,115.32,171.75,127.83Z" transform="translate(-6.01 30.87)"/><text class="cls-6" transform="translate(335.59 281.34) scale(1.03 1)">coding a sustainable future</text></svg>